<?xml version="1.0" encoding="UTF-8" standalone="no"?>
<svg
   width="64"
   height="64"
   version="1.1"
   viewBox="0 0 16.933 16.933"
   id="svg303"
   sodipodi:docname="10moons-T503.svg"
   inkscape:version="1.1 (c4e8f9ed74, 2021-05-24)"
   xmlns:inkscape="http://www.inkscape.org/namespaces/inkscape"
   xmlns:sodipodi="http://sodipodi.sourceforge.net/DTD/sodipodi-0.dtd"
   xmlns:xlink="http://www.w3.org/1999/xlink"
   xmlns="http://www.w3.org/2000/svg"
   xmlns:svg="http://www.w3.org/2000/svg">
  <sodipodi:namedview
     id="namedview305"
     pagecolor="#ffffff"
     bordercolor="#666666"
     borderopacity="1.0"
     inkscape:pageshadow="2"
     inkscape:pageopacity="0.0"
     inkscape:pagecheckerboard="0"
     showgrid="false"
     inkscape:zoom="5.2109376"
     inkscape:cx="42.122938"
     inkscape:cy="35.982008"
     inkscape:window-width="1920"
     inkscape:window-height="1009"
     inkscape:window-x="0"
     inkscape:window-y="0"
     inkscape:window-maximized="1"
     inkscape:current-layer="g710" />
  <defs
     id="defs71">
    <linearGradient
       inkscape:collect="always"
       id="linearGradient24726">
      <stop
         style="stop-color:#4d4d4d;stop-opacity:1"
         offset="0"
         id="stop24722" />
      <stop
         style="stop-color:#333333;stop-opacity:1"
         offset="1"
         id="stop24724" />
    </linearGradient>
    <linearGradient
       inkscape:collect="always"
       id="linearGradient24718">
      <stop
         style="stop-color:#4d4d4d;stop-opacity:1"
         offset="0"
         id="stop24714" />
      <stop
         style="stop-color:#333333;stop-opacity:1"
         offset="1"
         id="stop24716" />
    </linearGradient>
    <linearGradient
       inkscape:collect="always"
       id="linearGradient24688">
      <stop
         style="stop-color:#b3b3b3;stop-opacity:1;"
         offset="0"
         id="stop24684" />
      <stop
         style="stop-color:#f9f9f9;stop-opacity:1"
         offset="1"
         id="stop24686" />
    </linearGradient>
    <linearGradient
       inkscape:collect="always"
       id="linearGradient24524">
      <stop
         style="stop-color:#4d4d4d;stop-opacity:1"
         offset="0"
         id="stop24520" />
      <stop
         style="stop-color:#333333;stop-opacity:1"
         offset="1"
         id="stop24522" />
    </linearGradient>
    <linearGradient
       id="linearGradient862"
       x1="17.717133"
       x2="-2.574091"
       y1="17.311739"
       y2="-3.1012797"
       gradientUnits="userSpaceOnUse">
      <stop
         stop-color="#eae8e9"
         offset="0"
         id="stop2"
         style="stop-color:#b3b3b3;stop-opacity:1" />
      <stop
         stop-color="#f9f8f9"
         offset="1"
         id="stop4"
         style="stop-color:#e6e6e6;stop-opacity:1" />
    </linearGradient>
    <linearGradient
       id="linearGradient1021"
       x1="25.135"
       x2="25.135"
       y1="11.222"
       y2="9.3897"
       gradientTransform="translate(2.1817,0.14366)"
       gradientUnits="userSpaceOnUse">
      <stop
         stop-color="#212020"
         offset="0"
         id="stop7" />
      <stop
         stop-color="#212020"
         offset=".28446"
         id="stop9" />
      <stop
         stop-color="#5d7788"
         offset=".63483"
         id="stop11" />
      <stop
         stop-color="#fff"
         offset=".67901"
         id="stop13" />
      <stop
         stop-color="#fff"
         offset=".76713"
         id="stop15" />
      <stop
         stop-color="#374550"
         offset=".79259"
         id="stop17" />
      <stop
         stop-color="#212020"
         offset="1"
         id="stop19" />
    </linearGradient>
    <linearGradient
       id="linearGradient1039"
       x1="81.162"
       x2="81.162"
       y1="42.393"
       y2="35.405"
       gradientTransform="matrix(0.26458,0,0,0.26458,2.1817,0.14366)"
       gradientUnits="userSpaceOnUse">
      <stop
         stop-color="#212020"
         offset="0"
         id="stop22" />
      <stop
         stop-color="#688297"
         offset=".50969"
         id="stop24" />
      <stop
         stop-color="#212020"
         offset="1"
         id="stop26" />
    </linearGradient>
    <linearGradient
       id="linearGradient1056"
       x1="30.946"
       x2="30.946"
       y1="11.199"
       y2="9.3642"
       gradientTransform="matrix(1,0,0,0.54079,3.2497,4.869)"
       gradientUnits="userSpaceOnUse">
      <stop
         stop-color="#212020"
         offset="0"
         id="stop29" />
      <stop
         stop-color="#212020"
         offset=".28446"
         id="stop31" />
      <stop
         stop-color="#374550"
         offset=".63483"
         id="stop33" />
      <stop
         stop-color="#fefefe"
         offset=".67901"
         id="stop35" />
      <stop
         stop-color="#fff"
         offset=".76713"
         id="stop37" />
      <stop
         stop-color="#374550"
         offset=".79259"
         id="stop39" />
      <stop
         stop-color="#212020"
         offset="1"
         id="stop41" />
    </linearGradient>
    <linearGradient
       id="linearGradient1129"
       x1="25.135"
       x2="25.135"
       y1="11.222"
       y2="9.3897"
       gradientTransform="translate(-10.229,0.14366)"
       gradientUnits="userSpaceOnUse">
      <stop
         stop-color="#212020"
         offset="0"
         id="stop44" />
      <stop
         stop-color="#212020"
         offset=".28446"
         id="stop46" />
      <stop
         stop-color="#374550"
         offset=".63483"
         id="stop48" />
      <stop
         stop-color="#212020"
         offset="1"
         id="stop50" />
    </linearGradient>
    <linearGradient
       id="linearGradient1161"
       x1="17.367"
       x2="17.367"
       y1="10.635"
       y2="10.254"
       gradientUnits="userSpaceOnUse">
      <stop
         stop-color="#212020"
         offset="0"
         id="stop53" />
      <stop
         stop-color="#212020"
         offset=".28446"
         id="stop55" />
      <stop
         stop-color="#374550"
         offset=".63483"
         id="stop57" />
      <stop
         stop-color="#374550"
         offset=".79259"
         id="stop59" />
      <stop
         stop-color="#212020"
         offset="1"
         id="stop61" />
    </linearGradient>
    <linearGradient
       id="linearGradient1181"
       x1="17.367"
       x2="17.367"
       y1="10.635"
       y2="10.254"
       gradientTransform="matrix(1,0,0,0.66667,-0.43399,3.49)"
       gradientUnits="userSpaceOnUse">
      <stop
         stop-color="#212020"
         offset="0"
         id="stop64" />
      <stop
         stop-color="#1c2328"
         offset=".63329"
         id="stop66" />
      <stop
         stop-color="#212020"
         offset="1"
         id="stop68" />
    </linearGradient>
    <radialGradient
       inkscape:collect="always"
       xlink:href="#linearGradient24524"
       id="radialGradient24526"
       cx="21.605213"
       cy="10.651205"
       fx="21.605213"
       fy="10.651205"
       r="6.280902"
       gradientTransform="matrix(1,0,0,0.62747257,0,3.9678662)"
       gradientUnits="userSpaceOnUse" />
    <linearGradient
       inkscape:collect="always"
       xlink:href="#linearGradient24688"
       id="linearGradient24690"
       x1="29.103371"
       y1="15.161263"
       x2="15.45141"
       y2="2.0567284"
       gradientUnits="userSpaceOnUse" />
    <radialGradient
       inkscape:collect="always"
       xlink:href="#linearGradient24718"
       id="radialGradient24720"
       cx="6.4764521"
       cy="5.3652974"
       fx="6.4764521"
       fy="5.3652974"
       r="0.88387078"
       gradientTransform="matrix(1,0,0,0.55798653,0,2.3715337)"
       gradientUnits="userSpaceOnUse" />
    <radialGradient
       inkscape:collect="always"
       xlink:href="#linearGradient24726"
       id="radialGradient24728"
       cx="6.4764521"
       cy="5.3652974"
       fx="6.4764521"
       fy="5.3652974"
       r="0.88387078"
       gradientTransform="matrix(1,0,0,0.55798653,0,2.3715337)"
       gradientUnits="userSpaceOnUse" />
    <filter
       inkscape:collect="always"
       style="color-interpolation-filters:sRGB"
       id="filter26912"
       x="-0.027437215"
       y="-0.034081091"
       width="1.0548744"
       height="1.0681622">
      <feGaussianBlur
         inkscape:collect="always"
         stdDeviation="0.15313498"
         id="feGaussianBlur26914" />
    </filter>
  </defs>
  <g
     id="g710"
     transform="translate(0,-0.26461)">
    <g
       shape-rendering="auto"
       id="g19">
      <path
         d="m 4.3693,0.52916 c -2.1142,0 -3.8402,1.7835 -3.8402,3.9682 v 8.4675 c 0,2.1846 1.726,3.9682 3.8402,3.9682 h 8.1944 c 2.1142,0 3.8402,-1.7835 3.8402,-3.9682 v -8.4675 c 0,-2.1846 -1.726,-3.9682 -3.8402,-3.9682 z m 0.25704,0.52089 h 7.6808 c 1.8443,0 3.3291,1.5342 3.3291,3.44 v 7.9368 c 0,1.9058 -1.4847,3.44 -3.3291,3.44 h -7.6808 c -1.8443,0 -3.3291,-1.5342 -3.3291,-3.44 v -7.9368 c 0,-1.9058 1.4847,-3.44 3.3291,-3.44 z"
         color="#000000"
         color-rendering="auto"
         dominant-baseline="auto"
         image-rendering="auto"
         opacity="0.01"
         solid-color="#000000"
         stop-color="#000000"
         style="font-variant-ligatures:normal;font-variant-position:normal;font-variant-caps:normal;font-variant-numeric:normal;font-variant-alternates:normal;font-variant-east-asian:normal;font-feature-settings:normal;font-variation-settings:normal;text-indent:0;text-decoration-line:none;text-decoration-style:solid;text-decoration-color:#000000;text-transform:none;text-orientation:mixed;white-space:normal;shape-padding:0;shape-margin:0;inline-size:0;isolation:auto;mix-blend-mode:normal"
         id="path9" />
      <path
         d="m 4.3587,0.79373 c -1.9668,0 -3.5639,1.6528 -3.5639,3.6876 v 8.4996 c 0,2.0348 1.5971,3.6876 3.5639,3.6876 h 8.2162 c 1.9668,0 3.5644,-1.6528 3.5644,-3.6876 v -8.4996 c 0,-2.0348 -1.5976,-3.6876 -3.5644,-3.6876 z m 0.27222,0.25631 h 7.6718 c 1.8422,0 3.3251,1.5342 3.3251,3.44 v 7.9368 c 0,1.9058 -1.483,3.44 -3.3251,3.44 h -7.6718 c -1.8422,0 -3.3251,-1.5342 -3.3251,-3.44 v -7.9368 c 0,-1.9058 1.483,-3.44 3.3251,-3.44 z"
         color="#000000"
         color-rendering="auto"
         dominant-baseline="auto"
         image-rendering="auto"
         opacity="0.01"
         solid-color="#000000"
         stop-color="#000000"
         style="font-variant-ligatures:normal;font-variant-position:normal;font-variant-caps:normal;font-variant-numeric:normal;font-variant-alternates:normal;font-variant-east-asian:normal;font-feature-settings:normal;font-variation-settings:normal;text-indent:0;text-decoration-line:none;text-decoration-style:solid;text-decoration-color:#000000;text-transform:none;text-orientation:mixed;white-space:normal;shape-padding:0;shape-margin:0;inline-size:0;isolation:auto;mix-blend-mode:normal"
         id="path11" />
      <path
         d="m 4.3097,1.0583 c -1.8657,0 -3.3751,1.5383 -3.3751,3.439 v 8.4675 c 0,1.9007 1.57,3.439 3.4357,3.439 h 8.1996 c 1.8657,0 3.4274,-1.5383 3.4274,-3.439 V 4.4973 c 0,-1.9007 -1.51,-3.439 -3.3756,-3.439 h -0.09688 c 1.794,0.086515 3.2138,1.5819 3.2138,3.4318 v 7.9368 c 0,1.9058 -1.5059,3.44 -3.3766,3.44 h -7.7905 c -1.8707,0 -3.3766,-1.5342 -3.3766,-3.44 V 4.4901 c 0,-1.8498 1.4199,-3.3451 3.2138,-3.4318 z"
         color="#000000"
         color-rendering="auto"
         dominant-baseline="auto"
         image-rendering="auto"
         opacity="0.03"
         solid-color="#000000"
         stop-color="#000000"
         style="font-variant-ligatures:normal;font-variant-position:normal;font-variant-caps:normal;font-variant-numeric:normal;font-variant-alternates:normal;font-variant-east-asian:normal;font-feature-settings:normal;font-variation-settings:normal;text-indent:0;text-decoration-line:none;text-decoration-style:solid;text-decoration-color:#000000;text-transform:none;text-orientation:mixed;white-space:normal;shape-padding:0;shape-margin:0;inline-size:0;isolation:auto;mix-blend-mode:normal"
         id="path13" />
      <path
         transform="scale(0.26458)"
         d="m 4,46.969 v 2.0312 c 0,6.6479 5.8957,12 12.544,12 h 30.961 c 6.6479,0 12.495,-5.3521 12.495,-12 V 47.008 C 59.97883,54.1929 54.19,59.971 47,59.971 H 17.002 C 9.7988,59.971 4,54.1723 4,46.969 Z"
         color="#000000"
         color-rendering="auto"
         dominant-baseline="auto"
         image-rendering="auto"
         opacity="0.03"
         solid-color="#000000"
         stop-color="#000000"
         style="font-variant-ligatures:normal;font-variant-position:normal;font-variant-caps:normal;font-variant-numeric:normal;font-variant-alternates:normal;font-variant-east-asian:normal;font-feature-settings:normal;font-variation-settings:normal;text-indent:0;text-decoration-line:none;text-decoration-style:solid;text-decoration-color:#000000;text-transform:none;text-orientation:mixed;white-space:normal;shape-padding:0;shape-margin:0;inline-size:0;isolation:auto;mix-blend-mode:normal"
         id="path15" />
      <path
         d="m 1.0583,11.906 v 0.59234 c 0,1.9386 1.5729,3.4993 3.3318,3.4993 h 8.1603 c 1.7589,0 3.3243,-1.5608 3.3243,-3.4993 v -0.58095 c -0.0056,2.0952 -1.5372,3.7801 -3.4395,3.7801 H 4.4984 c -1.9058,0 -3.44,-1.691 -3.44,-3.7915 z"
         color="#000000"
         color-rendering="auto"
         dominant-baseline="auto"
         image-rendering="auto"
         opacity="0.05"
         solid-color="#000000"
         stop-color="#000000"
         style="font-variant-ligatures:normal;font-variant-position:normal;font-variant-caps:normal;font-variant-numeric:normal;font-variant-alternates:normal;font-variant-east-asian:normal;font-feature-settings:normal;font-variation-settings:normal;text-indent:0;text-decoration-line:none;text-decoration-style:solid;text-decoration-color:#000000;text-transform:none;text-orientation:mixed;white-space:normal;shape-padding:0;shape-margin:0;inline-size:0;isolation:auto;mix-blend-mode:normal"
         id="path17" />
    </g>
    <rect
       x="1.0583"
       y="1.05"
       width="14.816904"
       height="14.817"
       rx="3.4401"
       ry="3.4401"
       fill="url(#linearGradient862)"
       id="rect21"
       style="fill:url(#linearGradient862)" />
  </g>
  <circle
     id="path1562"
     style="fill:#808080;stroke:#000000;stroke-width:0.264578"
     cx="8.0240355"
     cy="5.9963183"
     r="0.00067100767" />
  <circle
     id="path1564"
     style="fill:#808080;stroke:#000000;stroke-width:0.264578"
     cx="8.0240355"
     cy="5.9963183"
     r="0.00067100767" />
  <g
     id="g27859"
     transform="matrix(0.94142108,-0.20925449,0.20925449,0.94142108,-13.250564,2.4019405)">
    <rect
       style="opacity:0.998;mix-blend-mode:normal;fill:#4d4d4d;fill-opacity:1;stroke-width:0.0649179;filter:url(#filter26912)"
       id="rect774-3-5"
       width="13.39509"
       height="10.783809"
       x="14.912841"
       y="4.1412849"
       rx="0.76268446"
       ry="0.74077421"
       transform="matrix(0.9643362,0,0,0.9643362,-0.22182197,1.831557)" />
    <g
       id="g27260"
       transform="translate(-0.992531,1.4915674)">
      <rect
         style="opacity:0.998;fill:url(#linearGradient24690);fill-opacity:1;stroke-width:0.0622486"
         id="rect774-3"
         width="12.844323"
         height="10.34041"
         x="15.188225"
         y="4.3629842"
         rx="0.73132515"
         ry="0.71031576" />
      <g
         id="g21475"
         transform="translate(-14.018601,7.7703751)">
        <g
           id="g24407"
           transform="translate(14.023774,-7.7727582)">
          <path
             style="color:#000000;opacity:0.998;fill:url(#radialGradient24526);fill-opacity:1;stroke-width:0.0537471;-inkscape-stroke:none"
             d="m 15.911698,6.7101116 h 11.387031 c 0.325412,0 0.587386,0.2851402 0.587386,0.6393278 v 6.6035316 c 0,0.354188 -0.261974,0.639328 -0.587386,0.639328 H 15.911698 c -0.325412,0 -0.587387,-0.28514 -0.587387,-0.639328 V 7.3494394 c 0,-0.3541876 0.261975,-0.6393278 0.587387,-0.6393278 z"
             id="rect774" />
          <g
             id="path1601">
            <path
               style="color:#000000;fill:#333333;stroke-width:3.7796;stroke-linecap:round;stroke-linejoin:bevel;-inkscape-stroke:none"
               d="m 27.509766,51.470703 -0.0078,0.0078 H 20.28125 L 19.898438,51.65625 17.115234,55 17.498047,55.818359 H 29.8125 v -0.0078 h 0.0078 10.03125 L 40.236316,54.9922 37.453113,51.64845 37.068347,51.470715 Z m 11.216796,3.269531 0.0625,0.07422 h -0.134765 c 0.04251,-0.02168 0.06202,-0.04715 0.07227,-0.07422 z m -20.105468,0.0039 c 0.02522,0.03494 0.05963,0.05723 0.101562,0.07031 H 18.5625 Z m 0.642578,0.06055 c 0.02864,8.39e-4 0.05502,0.0045 0.08008,0.0098 H 19.08594 c 0.0612,-0.0061 0.123017,-0.01137 0.177734,-0.0098 z"
               id="path22059"
               transform="matrix(0.26457812,0,0,0.26457812,14.018601,-7.7703751)" />
          </g>
        </g>
      </g>
      <g
         id="g9384"
         transform="translate(-0.03407089)">
        <g
           id="g9246"
           transform="translate(10.675001,0.24583802)">
          <rect
             style="opacity:0.998;fill:url(#radialGradient24720);fill-opacity:1;stroke:none;stroke-width:0.299568;stroke-linecap:round;stroke-linejoin:bevel;stroke-miterlimit:4;stroke-dasharray:none;stroke-opacity:1;paint-order:normal"
             id="rect8890"
             width="1.7677416"
             height="0.98637599"
             x="5.5925813"
             y="4.8721094"
             rx="0.41780198"
             ry="0.41185373" />
          <rect
             style="opacity:0.998;fill:#1a1a1a;fill-opacity:1;stroke:none;stroke-width:0.251569;stroke-linecap:round;stroke-linejoin:bevel;stroke-miterlimit:4;stroke-dasharray:none;stroke-opacity:1;paint-order:normal"
             id="rect9140"
             width="0.05620379"
             height="0.98605388"
             x="6.44835"
             y="4.8722701"
             rx="0"
             ry="0" />
        </g>
        <g
           id="g9376"
           transform="translate(19.650663,0.24583802)">
          <rect
             style="opacity:0.998;fill:url(#radialGradient24728);fill-opacity:1;stroke:none;stroke-width:0.299568;stroke-linecap:round;stroke-linejoin:bevel;stroke-miterlimit:4;stroke-dasharray:none;stroke-opacity:1;paint-order:normal"
             id="rect9372"
             width="1.7677416"
             height="0.98637599"
             x="5.5925813"
             y="4.8721094"
             rx="0.41780198"
             ry="0.41185373" />
          <rect
             style="opacity:0.998;fill:#1a1a1a;fill-opacity:1;stroke:none;stroke-width:0.251569;stroke-linecap:round;stroke-linejoin:bevel;stroke-miterlimit:4;stroke-dasharray:none;stroke-opacity:1;paint-order:normal"
             id="rect9374"
             width="0.05620379"
             height="0.98605388"
             x="6.44835"
             y="4.8722701"
             rx="0"
             ry="0" />
        </g>
      </g>
      <text
         xml:space="preserve"
         style="font-style:normal;font-weight:normal;font-size:0.705542px;line-height:1.25;font-family:sans-serif;fill:#000000;fill-opacity:1;stroke:none;stroke-width:0.264578"
         x="20.017227"
         y="6.6933808"
         id="text10615"><tspan
           sodipodi:role="line"
           id="tspan10613"
           style="font-style:normal;font-variant:normal;font-weight:bold;font-stretch:normal;font-size:0.705542px;font-family:'Caviar Dreams';-inkscape-font-specification:'Caviar Dreams Bold';fill:#cccccc;stroke-width:0.264578"
           x="20.017227"
           y="6.6933808">10moons</tspan></text>
    </g>
    <g
       id="g9453"
       transform="matrix(0.4164724,0.28228079,-0.28228079,0.4164724,16.857663,2.2509572)"
       style="opacity:0.57757">
      <g
         stroke-linecap="round"
         stroke-linejoin="round"
         id="g241"
         transform="translate(7.2706789,0.05659999)">
        <g
           stroke="#07080a"
           id="g235">
          <path
             d="M 15.667,0.71212 C 15.56471,0.708283 15.48299,0.737532 15.44635,0.801002 l -0.43356,0.75084 C 14.94219,1.533527 14.87675,1.523384 14.81539,1.51877 L 14.53996,1.431439 c -0.03144,-0.00996 -0.06464,-0.00634 -0.08113,0.02222 l -3.2478,5.6249 c -0.0165,0.028571 -0.0097,0.071687 0.0217,0.081647 l 0.04341,0.013953 -2.9445,5.0998 c 0.00113,-0.002 0.00388,-0.0028 0.00517,-0.0047 -0.00476,0.008 -0.012227,0.0132 -0.015503,0.02274 l -1.1715,3.408 c 0,0 1.754e-4,0.01966 0.034622,0.03256 -3.505e-4,5.72e-4 -0.00121,4.5e-4 -0.00155,10e-4 l -0.25579,0.44286 c -0.02006,0.03475 -0.00839,0.07916 0.026354,0.09922 l 0.00258,0.0016 -0.19275,0.33382 c -0.013373,0.02316 -0.00508,0.05277 0.018086,0.06614 l 0.14521,0.08423 c 0.023166,0.01337 0.052772,0.0051 0.066145,-0.01809 l 0.19585,-0.33951 c 0.031166,0.0088 0.065194,4.55e-4 0.082164,-0.02894 l 0.25579,-0.44286 c 0.00179,-0.0031 -2.559e-4,-0.0066 0.00103,-0.0098 0.00108,0.0018 0.00366,0.0034 0.00465,0.0052 0.03116,0.01453 0.042891,0.0067 0.042891,0.0067 l 2.3559,-2.7269 c 0.0027,-0.0032 0.0023,-0.0071 0.0047,-0.01033 -4.75e-4,9.02e-4 -6e-6,0.0022 -5.17e-4,0.0031 l 6.1457,-10.645 c 0.07058,-0.12225 -0.01458,-0.31328 -0.2005,-0.50228 l 0.43356,-0.75136 c 0.04118,-0.071322 0.01194,-0.16971 -0.05994,-0.26716 -0.01689,-0.022794 -0.03596,-0.044905 -0.05788,-0.067178 -0.0159,-0.016272 -0.03127,-0.03188 -0.04961,-0.047541 -0.03559,-0.030265 -0.07453,-0.059227 -0.11834,-0.085781 -0.006,-0.00361 -0.0099,-0.00837 -0.01602,-0.011885 -0.0059,-0.003395 -0.01168,-0.004512 -0.01757,-0.007751 -0.04508,-0.024754 -0.09018,-0.043708 -0.13436,-0.059427 -0.02291,-0.008096 -0.04393,-0.013996 -0.06614,-0.019637 -0.03109,-0.008033 -0.06051,-0.013388 -0.0894,-0.016536 -0.01212,-0.001291 -0.0261,-0.006282 -0.03772,-0.006718 z"
             opacity="0.03"
             stroke-width="0.79373"
             id="path229" />
          <path
             d="M 15.667,0.71212 C 15.56471,0.708283 15.48299,0.737532 15.44635,0.801002 l -0.43356,0.75084 C 14.94219,1.533527 14.87675,1.523384 14.81539,1.51877 L 14.53996,1.431439 c -0.03144,-0.00996 -0.06464,-0.00634 -0.08113,0.02222 l -3.2478,5.6249 c -0.0165,0.028571 -0.0097,0.071687 0.0217,0.081647 l 0.04341,0.013953 -2.9445,5.0998 c 0.00113,-0.002 0.00388,-0.0028 0.00517,-0.0047 -0.00476,0.008 -0.012227,0.0132 -0.015503,0.02274 l -1.1715,3.408 c 0,0 1.754e-4,0.01966 0.034622,0.03256 -3.505e-4,5.72e-4 -0.00121,4.5e-4 -0.00155,10e-4 l -0.25579,0.44286 c -0.02006,0.03475 -0.00839,0.07916 0.026354,0.09922 l 0.00258,0.0016 -0.19275,0.33382 c -0.013373,0.02316 -0.00508,0.05277 0.018086,0.06614 l 0.14521,0.08423 c 0.023166,0.01337 0.052772,0.0051 0.066145,-0.01809 l 0.19585,-0.33951 c 0.031166,0.0088 0.065194,4.55e-4 0.082164,-0.02894 l 0.25579,-0.44286 c 0.00179,-0.0031 -2.559e-4,-0.0066 0.00103,-0.0098 0.00108,0.0018 0.00366,0.0034 0.00465,0.0052 0.03116,0.01453 0.042891,0.0067 0.042891,0.0067 l 2.3559,-2.7269 c 0.0027,-0.0032 0.0023,-0.0071 0.0047,-0.01033 -4.75e-4,9.02e-4 -6e-6,0.0022 -5.17e-4,0.0031 l 6.1457,-10.645 c 0.07058,-0.12225 -0.01458,-0.31328 -0.2005,-0.50228 l 0.43356,-0.75136 c 0.04118,-0.071322 0.01194,-0.16971 -0.05994,-0.26716 -0.01689,-0.022794 -0.03596,-0.044905 -0.05788,-0.067178 -0.0159,-0.016272 -0.03127,-0.03188 -0.04961,-0.047541 -0.03559,-0.030265 -0.07453,-0.059227 -0.11834,-0.085781 -0.006,-0.00361 -0.0099,-0.00837 -0.01602,-0.011885 -0.0059,-0.003395 -0.01168,-0.004512 -0.01757,-0.007751 -0.04508,-0.024754 -0.09018,-0.043708 -0.13436,-0.059427 -0.02291,-0.008096 -0.04393,-0.013996 -0.06614,-0.019637 -0.03109,-0.008033 -0.06051,-0.013388 -0.0894,-0.016536 -0.01212,-0.001291 -0.0261,-0.006282 -0.03772,-0.006718 z"
             opacity="0.05"
             stroke-width="0.52916"
             id="path231" />
          <path
             d="M 15.667,0.71212 C 15.56471,0.708283 15.48299,0.737532 15.44635,0.801002 l -0.43356,0.75084 C 14.94219,1.533527 14.87675,1.523384 14.81539,1.51877 L 14.53996,1.431439 c -0.03144,-0.00996 -0.06464,-0.00634 -0.08113,0.02222 l -3.2478,5.6249 c -0.0165,0.028571 -0.0097,0.071687 0.0217,0.081647 l 0.04341,0.013953 -2.9445,5.0998 c 0.00113,-0.002 0.00388,-0.0028 0.00517,-0.0047 -0.00476,0.008 -0.012227,0.0132 -0.015503,0.02274 l -1.1715,3.408 c 0,0 1.754e-4,0.01966 0.034622,0.03256 -3.505e-4,5.72e-4 -0.00121,4.5e-4 -0.00155,10e-4 l -0.25579,0.44286 c -0.02006,0.03475 -0.00839,0.07916 0.026354,0.09922 l 0.00258,0.0016 -0.19275,0.33382 c -0.013373,0.02316 -0.00508,0.05277 0.018086,0.06614 l 0.14521,0.08423 c 0.023166,0.01337 0.052772,0.0051 0.066145,-0.01809 l 0.19585,-0.33951 c 0.031166,0.0088 0.065194,4.55e-4 0.082164,-0.02894 l 0.25579,-0.44286 c 0.00179,-0.0031 -2.559e-4,-0.0066 0.00103,-0.0098 0.00108,0.0018 0.00366,0.0034 0.00465,0.0052 0.03116,0.01453 0.042891,0.0067 0.042891,0.0067 l 2.3559,-2.7269 c 0.0027,-0.0032 0.0023,-0.0071 0.0047,-0.01033 -4.75e-4,9.02e-4 -6e-6,0.0022 -5.17e-4,0.0031 l 6.1457,-10.645 c 0.07058,-0.12225 -0.01458,-0.31328 -0.2005,-0.50228 l 0.43356,-0.75136 c 0.04118,-0.071322 0.01194,-0.16971 -0.05994,-0.26716 -0.01689,-0.022794 -0.03596,-0.044905 -0.05788,-0.067178 -0.0159,-0.016272 -0.03127,-0.03188 -0.04961,-0.047541 -0.03559,-0.030265 -0.07453,-0.059227 -0.11834,-0.085781 -0.006,-0.00361 -0.0099,-0.00837 -0.01602,-0.011885 -0.0059,-0.003395 -0.01168,-0.004512 -0.01757,-0.007751 -0.04508,-0.024754 -0.09018,-0.043708 -0.13436,-0.059427 -0.02291,-0.008096 -0.04393,-0.013996 -0.06614,-0.019637 -0.03109,-0.008033 -0.06051,-0.013388 -0.0894,-0.016536 -0.01212,-0.001291 -0.0261,-0.006282 -0.03772,-0.006718 z"
             opacity="0.1"
             stroke-width="0.26458"
             id="path233" />
        </g>
        <path
           d="M 15.667,0.71212 C 15.56471,0.708283 15.48299,0.737532 15.44635,0.801002 l -0.43356,0.75084 C 14.94219,1.533527 14.87675,1.523384 14.81539,1.51877 L 14.53996,1.431439 c -0.03144,-0.00996 -0.06464,-0.00634 -0.08113,0.02222 l -3.2478,5.6249 c -0.0165,0.028571 -0.0097,0.071687 0.0217,0.081647 l 0.04341,0.013953 -2.9445,5.0998 c 0.00113,-0.002 0.00388,-0.0028 0.00517,-0.0047 -0.00476,0.008 -0.012227,0.0132 -0.015503,0.02274 l -1.1715,3.408 c 0,0 1.754e-4,0.01966 0.034622,0.03256 -3.505e-4,5.72e-4 -0.00121,4.5e-4 -0.00155,10e-4 l -0.25579,0.44286 c -0.02006,0.03475 -0.00839,0.07916 0.026354,0.09922 l 0.00258,0.0016 -0.19275,0.33382 c -0.013373,0.02316 -0.00508,0.05277 0.018086,0.06614 l 0.14521,0.08423 c 0.023166,0.01337 0.052772,0.0051 0.066145,-0.01809 l 0.19585,-0.33951 c 0.031166,0.0088 0.065194,4.55e-4 0.082164,-0.02894 l 0.25579,-0.44286 c 0.00179,-0.0031 -2.559e-4,-0.0066 0.00103,-0.0098 0.00108,0.0018 0.00366,0.0034 0.00465,0.0052 0.03116,0.01453 0.042891,0.0067 0.042891,0.0067 l 2.3559,-2.7269 c 0.0027,-0.0032 0.0023,-0.0071 0.0047,-0.01033 -4.75e-4,9.02e-4 -6e-6,0.0022 -5.17e-4,0.0031 l 6.1457,-10.645 c 0.07058,-0.12225 -0.01458,-0.31328 -0.2005,-0.50228 l 0.43356,-0.75136 c 0.04118,-0.071322 0.01194,-0.16971 -0.05994,-0.26716 -0.01689,-0.022794 -0.03596,-0.044905 -0.05788,-0.067178 -0.0159,-0.016272 -0.03127,-0.03188 -0.04961,-0.047541 -0.03559,-0.030265 -0.07453,-0.059227 -0.11834,-0.085781 -0.006,-0.00361 -0.0099,-0.00837 -0.01602,-0.011885 -0.0059,-0.003395 -0.01168,-0.004512 -0.01757,-0.007751 -0.04508,-0.024754 -0.09018,-0.043708 -0.13436,-0.059427 -0.02291,-0.008096 -0.04393,-0.013996 -0.06614,-0.019637 -0.03109,-0.008033 -0.06051,-0.013388 -0.0894,-0.016536 -0.01212,-0.001291 -0.0261,-0.006282 -0.03772,-0.006718 z"
           opacity="0.15"
           stroke-opacity="0.35"
           stroke-width="0.088062"
           id="path237" />
        <path
           d="M 15.535,0.71212 C 15.43271,0.708283 15.35099,0.737532 15.31435,0.801002 l -0.43356,0.75084 C 14.81019,1.533527 14.74475,1.523384 14.68339,1.51877 L 14.40796,1.431439 c -0.03144,-0.00996 -0.06464,-0.00634 -0.08113,0.02222 l -3.2478,5.6249 c -0.0165,0.028571 -0.0097,0.071687 0.0217,0.081647 l 0.04341,0.013953 -2.9445,5.0998 c 0.00113,-0.002 0.00388,-0.0028 0.00517,-0.0047 -0.00476,0.008 -0.012227,0.0132 -0.015503,0.02274 l -1.1715,3.408 c 0,0 1.754e-4,0.01966 0.034622,0.03256 -3.505e-4,5.72e-4 -0.00121,4.5e-4 -0.00155,10e-4 l -0.25579,0.44286 c -0.02006,0.03475 -0.00839,0.07916 0.026354,0.09922 l 0.00258,0.0016 -0.19275,0.33382 c -0.013373,0.02316 -0.00508,0.05277 0.018086,0.06614 l 0.14521,0.08423 c 0.023166,0.01337 0.052772,0.0051 0.066145,-0.01809 l 0.19585,-0.33951 c 0.031166,0.0088 0.065194,4.55e-4 0.082164,-0.02894 l 0.25579,-0.44286 c 0.00179,-0.0031 -2.559e-4,-0.0066 0.00103,-0.0098 0.00108,0.0018 0.00366,0.0034 0.00465,0.0052 0.03116,0.01453 0.042891,0.0067 0.042891,0.0067 l 2.3559,-2.7269 c 0.0027,-0.0032 0.0023,-0.0071 0.0047,-0.01033 -4.75e-4,9.02e-4 -6e-6,0.0022 -5.17e-4,0.0031 l 6.1457,-10.645 c 0.07058,-0.12225 -0.01458,-0.31328 -0.2005,-0.50228 l 0.43356,-0.75136 c 0.04118,-0.071322 0.01194,-0.16971 -0.05994,-0.26716 -0.01689,-0.022794 -0.03596,-0.044905 -0.05788,-0.067178 -0.0159,-0.016272 -0.03127,-0.03188 -0.04961,-0.047541 -0.03559,-0.030265 -0.07453,-0.059227 -0.11834,-0.085781 -0.006,-0.00361 -0.0099,-0.00837 -0.01602,-0.011885 -0.0059,-0.003395 -0.01168,-0.004512 -0.01757,-0.007751 -0.04508,-0.024754 -0.09018,-0.043708 -0.13436,-0.059427 -0.02291,-0.008096 -0.04393,-0.013996 -0.06614,-0.019637 -0.03109,-0.008033 -0.06051,-0.013388 -0.0894,-0.016536 -0.01212,-0.001291 -0.0261,-0.006282 -0.03772,-0.006718 z"
           opacity="0.25"
           stroke-opacity="0.35"
           stroke-width="0.088062"
           id="path239" />
      </g>
      <g
         transform="rotate(-60,20.860347,15.794236)"
         stroke-linecap="round"
         stroke-linejoin="round"
         stroke-opacity="0.35"
         id="g289">
        <rect
           x="16.643"
           y="10.319"
           width="0.65635997"
           height="0.26458001"
           rx="0"
           ry="0.048278999"
           fill="url(#linearGradient1181)"
           stroke-width="0.088062"
           id="rect243"
           style="fill:url(#linearGradient1181)" />
        <rect
           x="17.077"
           y="10.243"
           width="0.65635997"
           height="0.39686999"
           rx="0"
           ry="0.072417997"
           fill="url(#linearGradient1161)"
           stroke-width="0.10785"
           id="rect245"
           style="fill:url(#linearGradient1161)" />
        <path
           d="m 33.137,9.933 c 0.14658,0 0.26458,0.2233 0.26458,0.50073 0,0.27743 -0.118,0.50074 -0.26458,0.50074 h 1.5875 c 0.14658,0 0.26458,-0.2233 0.26458,-0.50074 0,-0.27743 -0.118,-0.50073 -0.26458,-0.50073 z"
           fill="url(#linearGradient1056)"
           stroke-width="0.076702"
           id="path247"
           style="fill:url(#linearGradient1056)" />
        <path
           d="m 33.72,9.933 c 0.14658,0 0.18526,0.2233 0.18526,0.50073 0,0.27743 -0.03868,0.50074 -0.18526,0.50074 h 0.13177 c 0.14658,0 0.18526,-0.2233 0.18526,-0.50074 0,-0.27743 -0.03868,-0.50073 -0.18526,-0.50073 z"
           fill="#212020"
           stroke-width="0.076702"
           id="path249" />
        <path
           d="m 21.231,9.5078 c 0.14658,0 0.26458,0.41301 0.26458,0.92602 0,0.51302 -0.118,0.92602 -0.26458,0.92602 h 12.292 c 0.22096,0 0.39842,-0.41301 0.39842,-0.92602 0,-0.51302 -0.17745,-0.92602 -0.39842,-0.92602 z"
           fill="url(#linearGradient1021)"
           stroke-width="0.1043"
           id="path251"
           style="fill:url(#linearGradient1021)" />
        <path
           d="m 21.572,9.5078 0.05684,0.21239 -0.10955,0.40927 -0.15503,-0.57876 -0.04599,0.011885 c 0.06154,0.075053 0.10935,0.23191 0.14056,0.42839 0.0052,0.032851 0.01247,0.059904 0.01654,0.095083 0.01624,0.09307 0.02853,0.19131 0.03101,0.29713 l 0.01292,-0.04909 0.10955,0.40875 -0.10955,0.40824 -0.06563,-0.24598 c -0.0072,0.04153 -0.01434,0.08301 -0.02325,0.11989 l 0.06149,0.22892 -0.02842,0.10593 h 0.05478 l 10e-4,-0.0036 0.001,0.0036 h 0.05478 l -0.02842,-0.10645 0.10955,-0.40875 0.10955,0.40875 -0.02842,0.10645 h 0.05478 l 10e-4,-0.0041 0.001,0.0041 h 0.05478 l -0.02842,-0.10645 0.10955,-0.40875 0.10955,0.40875 -0.02842,0.10645 h 0.05478 l 0.001,-0.0041 0.001,0.0041 h 0.05478 l -0.02842,-0.10645 0.10955,-0.40875 0.11007,0.40979 -0.02842,0.10542 h 0.05478 l 10e-4,-0.0031 0.001,0.0031 h 0.05478 l -0.02842,-0.10542 0.10955,-0.40927 0.10904,0.40772 -0.02842,0.10697 h 0.05478 l 0.001,-0.0047 10e-4,0.0047 h 0.05478 l -0.02842,-0.10645 0.10955,-0.40824 0.11007,0.40927 -0.02842,0.10542 h 0.05478 l 0.001,-0.0031 0.001,0.0031 h 0.05478 l -0.02842,-0.10542 0.10955,-0.40927 0.10955,0.40875 -0.02842,0.10593 h 0.05478 l 0.001,-0.0041 0.001,0.0041 h 0.05478 l -0.02842,-0.10645 0.10955,-0.40875 0.10955,0.40927 -0.02842,0.10593 h 0.05477 l 0.001,-0.0036 10e-4,0.0036 h 0.05477 l -0.02842,-0.10593 0.10955,-0.40927 0.10955,0.40927 -0.02842,0.10593 h 0.05478 l 10e-4,-0.0036 0.001,0.0036 h 0.05478 l -0.02842,-0.10593 0.10955,-0.40875 0.10955,0.40875 -0.02842,0.10593 h 0.05478 l 10e-4,-0.0036 0.001,0.0036 h 0.05478 l -0.02842,-0.10645 0.10955,-0.40875 0.10955,0.40927 -0.02842,0.10593 h 0.05478 l 0.001,-0.0036 0.001,0.0036 h 0.05478 l -0.02842,-0.10593 0.10955,-0.40875 0.10955,0.40875 -0.02842,0.10593 h 0.05478 l 0.001,-0.0036 0.001,0.0036 h 0.05478 l -0.02842,-0.10645 0.10955,-0.40875 0.10955,0.40927 -0.02842,0.10593 h 0.05478 l 0.001,-0.0041 10e-4,0.0041 h 0.05478 l -0.02842,-0.10593 0.10955,-0.40927 0.10955,0.40875 -0.02842,0.10645 h 0.05478 l 0.001,-0.0041 10e-4,0.0041 h 0.05478 l -0.02842,-0.10593 0.10955,-0.40927 0.10955,0.40875 -0.02842,0.10645 h 0.05529 l 0.001,-0.0031 10e-4,0.0031 h 0.05426 l -0.0279,-0.1049 0.10955,-0.40927 0.10904,0.40772 -0.02842,0.10645 h 0.05478 l 10e-4,-0.0047 0.001,0.0047 h 0.05478 l -0.02842,-0.10697 0.10955,-0.40875 0.10955,0.40927 -0.02842,0.10645 h 0.05478 l 0.001,-0.0041 0.001,0.0041 h 0.05478 l -0.02842,-0.10593 0.10955,-0.40927 0.10955,0.40875 -0.02842,0.10645 h 0.05478 l 0.001,-0.0041 10e-4,0.0041 h 0.03721 c 0.0057,0 0.01094,-0.0031 0.01654,-0.0036 l -0.02739,-0.10283 0.10955,-0.40875 0.10283,0.38498 c 0.10247,-0.13979 0.17451,-0.38102 0.19172,-0.66661 l -0.02067,0.077 -0.10955,-0.40927 0.07545,-0.28215 C 26.54261,9.915397 26.53247,9.884805 26.52196,9.854569 l -0.07338,0.2744 -0.10904,-0.40824 0.03566,-0.13229 C 26.36053,9.573312 26.34475,9.563268 26.32921,9.552266 L 26.31164,9.617894 26.28684,9.524878 C 26.26789,9.516678 26.24826,9.513225 26.22845,9.511443 l 0.05581,0.20877 -0.10955,0.40875 -0.10955,-0.40927 0.05684,-0.21187 h -0.05478 l -0.02945,0.11007 -0.02945,-0.11007 h -0.05478 l 0.05684,0.21239 -0.10955,0.40875 -0.10904,-0.40824 0.05684,-0.2129 h -0.05529 l -0.02945,0.11007 -0.02945,-0.11007 h -0.05478 l 0.05684,0.21239 -0.10955,0.40927 -0.10955,-0.40875 0.05684,-0.2129 h -0.05478 l -0.02945,0.11059 -0.02946,-0.11059 h -0.05478 l 0.05684,0.21187 -0.10955,0.40875 -0.10955,-0.40875 0.05684,-0.21187 h -0.05478 l -0.02946,0.11007 -0.02945,-0.11007 h -0.05478 l 0.05684,0.21239 -0.10955,0.40927 -0.10955,-0.40927 0.05684,-0.21239 h -0.05478 l -0.02945,0.11059 -0.02945,-0.11059 H 24.858 l 0.05684,0.21239 -0.10955,0.40875 -0.10955,-0.40875 0.05684,-0.21239 H 24.6978 l -0.02946,0.11007 -0.02945,-0.11007 h -0.05478 l 0.05684,0.21239 -0.10955,0.40927 -0.10955,-0.40875 0.05684,-0.2129 H 24.42391 L 24.39446,9.618433 24.365,9.507843 h -0.05478 l 0.05684,0.2129 -0.10955,0.40875 -0.10955,-0.40927 0.05684,-0.21239 h -0.05478 l -0.02946,0.11007 -0.02945,-0.11007 h -0.05478 l 0.05684,0.21239 -0.10955,0.40927 -0.10955,-0.40875 0.05684,-0.2129 h -0.05477 l -0.02946,0.11059 -0.02945,-0.11059 h -0.05478 l 0.05684,0.2129 -0.10955,0.40875 -0.10955,-0.40927 0.05684,-0.21239 h -0.05478 l -0.02945,0.11007 -0.02945,-0.11007 h -0.05478 l 0.05684,0.21239 -0.10955,0.40927 -0.10955,-0.40875 0.05684,-0.2129 h -0.05478 l -0.02945,0.11059 -0.02946,-0.11059 h -0.05478 l 0.05684,0.2129 -0.10955,0.40927 -0.10955,-0.40927 0.05684,-0.2129 h -0.05478 l -0.02945,0.11059 -0.02997,-0.11059 H 22.9408 l 0.05684,0.21239 -0.10955,0.40927 -0.10955,-0.40927 0.05684,-0.21239 H 22.7806 l -0.02946,0.11059 -0.02945,-0.11059 h -0.05478 l 0.05796,0.21288 -0.10955,0.40927 -0.11007,-0.40875 0.05736,-0.21342 h -0.05529 l -0.02946,0.11059 -0.02945,-0.11059 h -0.05478 l 0.05684,0.2129 -0.10955,0.40824 -0.10955,-0.40875 0.05684,-0.21239 h -0.05478 l -0.02945,0.11007 -0.02946,-0.11007 h -0.05478 l 0.05684,0.21239 -0.10955,0.40875 -0.10955,-0.40824 0.05684,-0.2129 h -0.05478 l -0.02946,0.11059 -0.02945,-0.11059 h -0.05478 l 0.05684,0.2129 -0.10955,0.40824 -0.10955,-0.40875 0.05684,-0.21239 h -0.05478 l -0.02945,0.11007 -0.02946,-0.11007 z m 3.6452,0.31419 0.10955,0.40875 -0.10955,0.40927 -0.10955,-0.40875 z m 0.27388,0 0.10955,0.40927 -0.10955,0.40875 -0.10955,-0.40927 z m 0.54776,0 0.10955,0.40927 -0.10955,0.40875 -0.10955,-0.40927 z m -4.3826,5.167e-4 0.10955,0.4087503 -0.10955,0.40927 -0.10955,-0.40875 z m 0.54776,0 0.10955,0.4087503 -0.10955,0.40875 -0.10955,-0.40875 z m 0.54828,0 0.10955,0.4087503 -0.11007,0.40979 -0.10904,-0.40875 z m 0.27388,0 0.10955,0.4092703 -0.10955,0.40875 -0.10955,-0.40875 z m 0.54776,0 0.10955,0.4092703 -0.10955,0.40875 -0.10955,-0.40875 z m 0.27388,0 0.10955,0.4092703 -0.10955,0.40875 -0.10955,-0.40927 z m 0.27388,0 0.10955,0.4092703 -0.10955,0.40875 -0.10955,-0.40875 z m 0.27388,0 0.10955,0.4092703 -0.10955,0.40875 -0.10955,-0.40927 z m 0.27388,0 0.10955,0.4087503 -0.10955,0.40927 -0.10955,-0.40875 z m 0.27388,0 0.10955,0.4092703 -0.10955,0.40875 -0.10955,-0.40927 z m -3.0132,5.167e-4 0.10955,0.4082396 -0.10955,0.40875 -0.10955,-0.40875 z m 1.3699,0 0.10955,0.4087496 -0.10955,0.40927 -0.10955,-0.40875 z m 2.4654,0 0.10904,0.4082396 -0.10955,0.40927 -0.10955,-0.40772 z m 0.54776,0 0.10904,0.4082396 -0.10955,0.40875 -0.10904,-0.40824 z m -3.8354,5.17e-4 0.11007,0.4087496 -0.10955,0.40875 -0.11007,-0.40979 z m 2.8763,0.5095196 0.10955,0.40927 -0.10955,0.40927 -0.10955,-0.40927 z m 0.54776,0 0.10955,0.40927 -0.10955,0.40927 -0.10955,-0.40927 z m 0.54776,0 0.10955,0.40927 -0.10955,0.40875 -0.10955,-0.40875 z m -4.6565,5.17e-4 0.10955,0.40875 -0.10955,0.40875 -0.10955,-0.40824 z m 0.27388,0 0.10955,0.40875 -0.10955,0.40875 -0.10955,-0.40875 z m 0.27388,0 0.11007,0.40927 -0.10955,0.40927 -0.11007,-0.40979 z m 0.54828,0 0.10955,0.40927 -0.10955,0.40927 -0.11007,-0.40927 z m 0.54776,0 0.10955,0.40927 -0.10955,0.40927 -0.10955,-0.40927 z m 0.27388,0 0.10955,0.40927 -0.10955,0.40875 -0.10955,-0.40875 z m 0.54776,0 0.10955,0.40927 -0.10955,0.40875 -0.10955,-0.40875 z m 0.27388,0 0.10955,0.40875 -0.10955,0.40875 -0.10955,-0.40875 z m 0.27388,0 0.10955,0.40875 -0.10955,0.40927 -0.10955,-0.40875 z m 0.27388,0 0.10955,0.40875 -0.10955,0.40927 -0.10955,-0.40927 z m -1.9172,5.17e-4 0.10955,0.40875 -0.10955,0.40875 -0.10955,-0.40875 z m 0.82164,0 0.10955,0.40875 -0.10955,0.40875 -0.10955,-0.40875 z m 1.6438,0 0.10904,0.40824 -0.10955,0.40875 -0.10904,-0.40824 z m 0.54724,0 0.10955,0.40824 -0.10955,0.40875 -0.10955,-0.40875 z m -3.5604,5.16e-4 0.10904,0.40824 -0.10955,0.40824 -0.10904,-0.40772 z m -1.3694,1.0201 c -0.0051,10e-4 -0.0098,0.0052 -0.01499,0.0052 h 0.01344 z"
           fill="url(#linearGradient1039)"
           opacity="0.75"
           stroke-width="0.081337"
           id="path253"
           style="fill:url(#linearGradient1039)" />
        <g
           fill="#212020"
           id="g261">
          <path
             d="m 31.562,9.5078 c 0.22096,0 0.39893,0.41301 0.39893,0.92602 0,0.51302 -0.17797,0.92602 -0.39893,0.92602 h 0.11782 c 0.22096,0 0.39893,-0.41301 0.39893,-0.92602 0,-0.51302 -0.17797,-0.92602 -0.39893,-0.92602 z"
             stroke-width="0.1043"
             id="path255" />
          <path
             d="m 34.85,9.9951 c 0.03917,0.083506 0.09899,0.24162 0.09899,0.43496 0,0.19334 -0.05982,0.35898 -0.09899,0.44248 0.07961,-0.08143 0.13305,-0.237 0.13694,-0.41909 3.1e-5,-0.0069 5.29e-4,-0.01267 5.29e-4,-0.01964 0,-0.007 -5.29e-4,-0.01273 -5.29e-4,-0.01964 C 34.98304,10.23209 34.92961,10.07651 34.85,9.99508 Z"
             stroke-width="0.061463"
             id="path257" />
          <path
             d="m 27.116,9.4537 6.4313,0.21473 c 0.03296,0.0011 0.27279,0.18649 0.25909,0.21649 l -0.11126,0.24363 c -0.0137,0.03 -0.02655,0.05954 -0.05954,0.05954 h -6.4954 c -0.03298,0 -0.05244,-0.02733 -0.05954,-0.05954 L 26.99236,9.72797 c -0.0071,-0.03221 0.09066,-0.27426 0.12365,-0.27426 z"
             stroke-width="0.10583"
             id="path259" />
        </g>
        <path
           d="m 27.171,9.4039 h 6.4954 c 0.03298,0 0.05244,0.027326 0.05954,0.059537 l 0.08829,0.40058 c 0.0071,0.03221 -0.02655,0.059537 -0.05954,0.059537 h -6.4954 c -0.03298,0 -0.05244,-0.027326 -0.05954,-0.059537 L 27.11146,9.463437 C 27.10436,9.431227 27.13801,9.4039 27.171,9.4039 Z"
           fill="#374550"
           stroke-width="0.10583"
           id="path263" />
        <path
           d="m 27.147,9.4132 c -0.0225,0.00943 -0.04141,0.026356 -0.03617,0.050125 l 0.08836,0.40048 c 0.0071,0.032211 0.02645,0.059944 0.05943,0.059944 h 6.4956 c 0.03299,0 0.06653,-0.027734 0.05943,-0.059944 l -0.0047,-0.020153 c -0.0079,0.00329 -0.01469,0.0093 -0.02325,0.0093 h -6.4956 c -0.03298,0 -0.05233,-0.027216 -0.05943,-0.059427 z"
           fill="#565e64"
           stroke-width="0.10583"
           id="path265" />
        <g
           stroke-width="0.1043"
           id="g275">
          <path
             d="m 17.674,10.198 c 0,0 -0.01787,0.0095 -0.01129,0.04666 0.03723,0.04536 0.05265,0.14856 0.05361,0.18949 9.6e-4,0.04093 -0.01292,0.14934 -0.04836,0.20844 0.003,0.03425 0.01566,0.04079 0.01566,0.04079 l 3.5398,0.6768 c 0.21703,0.0415 0.28773,-0.41301 0.28773,-0.92602 0,-0.51302 -0.08337,-0.96833 -0.30024,-0.92602 z"
             fill="url(#linearGradient1129)"
             id="path267"
             style="fill:url(#linearGradient1129)" />
          <path
             d="m 17.792,10.301 c 0,0 -0.02941,-4.36e-4 -0.02749,0.08142 0.0019,0.08186 0.02749,0.08623 0.02749,0.08623 l 3.3701,0.02939 c 0.22096,0.0019 0.2305,-0.35557 0.2305,-0.5007 0,-0.21274 -0.14975,-0.38834 -0.2293,-0.37239 z"
             fill="#374550"
             id="path269" />
          <path
             d="m 17.792,10.301 c 0,0 -0.02941,-4.36e-4 -0.02749,0.08142 0.0019,0.08186 0.02749,0.08623 0.02749,0.08623 l 3.3217,-0.12256 c 0.22082,-0.0081 0.20164,-0.20543 0.20164,-0.35056 0,-0.21274 -0.09313,-0.29602 -0.17304,-0.28201 z"
             fill="#565e64"
             id="path271" />
          <path
             d="m 17.792,10.319 c 0,0 -0.02941,-0.01819 -0.02749,0.06367 0.0019,0.08186 0.02749,0.06811 0.02749,0.06811 l 3.3559,-0.24296 c 0.08366,-0.0061 0.12098,-0.06814 0.12098,-0.21327 0,-0.21274 -0.07815,-0.20471 -0.14459,-0.19437 z"
             fill="#ffffff"
             id="path273" />
        </g>
        <path
           d="m 17.41,10.353 c 0,0.01341 -0.12228,0.02429 -0.19999,0.02429 -0.0777,0 -0.08142,-0.01088 -0.08142,-0.02429 0,-0.01341 0.0037,-0.02429 0.08142,-0.02429 0.0777,0 0.19999,0.01088 0.19999,0.02429 z"
           fill="#ffffff"
           stroke-width="0.087931"
           id="path277" />
        <path
           d="m 16.983,10.412 c 0,0.01341 -0.12228,0.02429 -0.19999,0.02429 -0.0777,0 -0.08142,-0.01088 -0.08142,-0.02429 0,-0.01341 0.0037,-0.02429 0.08142,-0.02429 0.0777,0 0.19999,0.01088 0.19999,0.02429 z"
           fill="#374550"
           stroke-width="0.087931"
           id="path279" />
        <g
           fill="#212020"
           stroke-width="0.1043"
           id="g287">
          <path
             d="m 26.174,9.5078 c 0.22096,0 0.39893,0.41301 0.39893,0.92602 0,0.51302 -0.17797,0.92602 -0.39893,0.92602 h 0.11782 c 0.22096,0 0.39893,-0.41301 0.39893,-0.92602 0,-0.51302 -0.17797,-0.92602 -0.39893,-0.92602 z"
             opacity="0.75"
             id="path281" />
          <path
             d="m 22.848,9.5078 c 0.22096,0 0.39893,0.41301 0.39893,0.92602 0,0.51302 -0.17797,0.92602 -0.39893,0.92602 h 0.11782 c 0.22096,0 0.39893,-0.41301 0.39893,-0.92602 0,-0.51302 -0.17797,-0.92602 -0.39893,-0.92602 z"
             opacity="0.75"
             id="path283" />
          <path
             d="m 22.234,9.5078 c 0.22096,0 0.39893,0.41301 0.39893,0.92602 0,0.51302 -0.17797,0.92602 -0.39893,0.92602 h 0.11782 c 0.22096,0 0.39893,-0.41301 0.39893,-0.92602 0,-0.51302 -0.17797,-0.92602 -0.39893,-0.92602 z"
             opacity="0.75"
             id="path285" />
        </g>
      </g>
    </g>
  </g>
</svg>
